<svg width="24" height="24" viewBox="0 0 24 24" fill="none" xmlns="http://www.w3.org/2000/svg">
<g clip-path="url(#clip0_305_27862)">
<path d="M5.75 11.74C6.63 11.01 7.65 10.44 8.75 10.05C9.77 9.69 10.86 9.5 12 9.5C13.14 9.5 14.23 9.69 15.25 10.05C16.35 10.44 17.37 11.01 18.25 11.74" stroke="#121331" stroke-width="1.5" stroke-linecap="round" stroke-linejoin="round"/>
<path d="M2.75 8.07C3.66 7.31 4.67 6.67 5.75 6.16C7.63 5.25 9.76 4.75 12 4.75C14.24 4.75 16.37 5.25 18.25 6.16C19.33 6.67 20.34 7.31 21.25 8.07" stroke="#121331" stroke-width="1.5" stroke-linecap="round" stroke-linejoin="round"/>
<path d="M8.75 15.41C9.64 14.68 10.77 14.25 12 14.25C13.23 14.25 14.36 14.68 15.25 15.41" stroke="#121331" stroke-width="1.5" stroke-linecap="round" stroke-linejoin="round"/>
<path d="M12 20.0001C11.83 20.0001 11.67 19.9701 11.52 19.9101C11.37 19.8401 11.23 19.7501 11.12 19.6301C11 19.5201 10.91 19.3801 10.85 19.2301C10.78 19.0801 10.75 18.9201 10.75 18.7501C10.75 18.6701 10.75 18.5901 10.77 18.5101C10.79 18.4301 10.81 18.3501 10.85 18.2701C10.88 18.2001 10.92 18.1201 10.96 18.0601C11.01 17.9901 11.06 17.9201 11.12 17.8701C11.17 17.8101 11.24 17.7601 11.31 17.7101C11.37 17.6701 11.45 17.6301 11.52 17.6001C11.6 17.5601 11.68 17.5401 11.76 17.5201C11.92 17.4901 12.08 17.4901 12.24 17.5201C12.32 17.5401 12.4 17.5601 12.48 17.6001C12.55 17.6301 12.63 17.6701 12.69 17.7101C12.76 17.7601 12.83 17.8101 12.88 17.8701C13.12 18.1001 13.25 18.4201 13.25 18.7501C13.25 18.9201 13.22 19.0801 13.15 19.2301C13.09 19.3801 13 19.5201 12.88 19.6301C12.77 19.7501 12.63 19.8401 12.48 19.9101C12.33 19.9701 12.17 20.0001 12 20.0001Z" fill="#121331"/>
</g>
<defs>
<clipPath id="clip0_305_27862">
<rect width="24" height="24" fill="white"/>
</clipPath>
</defs>
</svg>
